<svg xmlns="http://www.w3.org/2000/svg" version="1.1" xmlns:xlink="http://www.w3.org/1999/xlink" xmlns:svgjs="http://svgjs.dev/svgjs" width="128" height="128" viewBox="0 0 128 128"><g transform="matrix(0.8046875,0,0,0.8046875,12.760752631578946,12.760752631578946)"><svg viewBox="0 0 95 95" data-background-color="#ffffff" preserveAspectRatio="xMidYMid meet" height="128" width="128" xmlns="http://www.w3.org/2000/svg" xmlns:xlink="http://www.w3.org/1999/xlink"><g id="tight-bounds" transform="matrix(1,0,0,1,-0.24049999999999727,-0.24049999999999727)"><svg viewBox="0 0 95.481 95.481" height="95.481" width="95.481"><g><svg viewBox="0 0 95.481 95.481" height="95.481" width="95.481"><g><svg viewBox="0 0 95.481 95.481" height="95.481" width="95.481"><g id="textblocktransform"><svg viewBox="0 0 95.481 95.481" height="95.481" width="95.481" id="textblock"><g><svg viewBox="0 0 95.481 95.481" height="95.481" width="95.481"><g><svg viewBox="0 0 95.481 95.481" height="95.481" width="95.481"><g><svg xmlns="http://www.w3.org/2000/svg" xmlns:xlink="http://www.w3.org/1999/xlink" version="1.1" x="0" y="0" viewBox="1 1 62 62" style="enable-background:new 0 0 64 64;" xml:space="preserve" height="95.481" width="95.481" class="icon-icon-0" data-fill-palette-color="accent" id="icon-0"><g fill="#471aa0" data-fill-palette-color="accent"><path d="M34 23c-1.302 0-2.402 0.839-2.816 2H27v2h4.184c0.414 1.161 1.514 2 2.816 2s2.402-0.839 2.816-2H59v-2H36.816C36.402 23.839 35.302 23 34 23zM34 27c-0.552 0-1-0.449-1-1s0.448-1 1-1 1 0.449 1 1S34.552 27 34 27z" fill="#ffffff" data-fill-palette-color="accent"></path><path d="M37 4.382v13.236L50.236 11 37 4.382zM39 7.618L45.764 11 39 14.382V7.618z" fill="#ffffff" data-fill-palette-color="accent"></path><path d="M4 55h14c1.654 0 3-1.346 3-3v-1.051C30.677 50.442 38.442 42.677 38.949 33H58c2.757 0 5-2.243 5-5V6c0-2.757-2.243-5-5-5H28c-2.757 0-5 2.243-5 5v7.24C22.011 13.083 21.006 13 20 13 9.523 13 1 21.523 1 32c0 10.139 7.989 18.424 18 18.949V52c0 0.552-0.448 1-1 1H4c-1.654 0-3 1.346-3 3s1.346 3 3 3h26c1.654 0 3-1.346 3-3 0-0.552 0.448-1 1-1h5v1c0 3.859 3.141 7 7 7h8c4.963 0 9-4.037 9-9s-4.037-9-9-9h-8c-3.859 0-7 3.141-7 7v1h-5c-1.654 0-3 1.346-3 3 0 0.552-0.448 1-1 1H4c-0.552 0-1-0.448-1-1S3.448 55 4 55zM14.374 42h11.251c-1.361 4.388-3.538 7-5.626 7S15.735 46.388 14.374 42zM3.051 33h7.973c0.059 2.504 0.335 4.862 0.794 7H5.008C3.879 37.892 3.198 35.517 3.051 33zM24.026 31H13.022c0.062-2.588 0.356-4.942 0.823-7H23v4C23 29.13 23.391 30.162 24.026 31zM11.023 31H3.051c0.148-2.517 0.828-4.892 1.958-7h6.809C11.358 26.138 11.082 28.496 11.023 31zM13.022 33h13.956c-0.062 2.588-0.356 4.942-0.823 7H13.846C13.379 37.942 13.084 35.588 13.022 33zM24.638 48.341c1.248-1.557 2.29-3.73 3.043-6.341h6.037C31.506 45.024 28.331 47.291 24.638 48.341zM34.992 40h-6.809c0.459-2.138 0.735-4.496 0.794-7h7.973C36.802 35.517 36.121 37.892 34.992 40zM58 31H28c-1.654 0-3-1.346-3-3v-7h36v7C61 29.654 59.654 31 58 31zM28 3h30c1.654 0 3 1.346 3 3v13H25V6C25 4.346 26.346 3 28 3zM23 15.29V22h-8.626c1.361-4.388 3.538-7 5.626-7C21.01 15 22.012 15.114 23 15.29zM15.362 15.659c-1.248 1.557-2.29 3.73-3.043 6.341H6.283C8.494 18.976 11.669 16.709 15.362 15.659zM6.283 42h6.037c0.753 2.611 1.795 4.783 3.043 6.341C11.669 47.291 8.494 45.024 6.283 42zM44 53c0.552 0 1 0.448 1 1s-0.448 1-1 1h-3v-2H44zM51 61v-0.051c0-0.705 2.278-2 6-2 0.62 0 1.232 0.039 1.821 0.113C57.564 60.26 55.868 61 54 61H51zM60.187 57.265c-3.032-0.606-6.884-0.274-9.187 0.97v-8.503C52.541 50.57 54.778 51 57 51c1.093 0 2.17-0.109 3.165-0.311C60.697 51.676 61 52.803 61 54 61 55.179 60.704 56.289 60.187 57.265zM58.773 48.894C58.199 48.964 57.603 49 57 49c-3.722 0-6-1.295-6-2h3C55.845 47 57.521 47.723 58.773 48.894zM46 47h3v14h-3c-2.414 0-4.434-1.721-4.899-4H44c1.654 0 3-1.346 3-3s-1.346-3-3-3h-2.899C41.566 48.721 43.586 47 46 47z" fill="#ffffff" data-fill-palette-color="accent"></path><rect x="27" y="15" width="2" height="2" fill="#ffffff" data-fill-palette-color="accent"></rect><path d="M29 7h2V5h-2c-1.103 0-2 0.897-2 2v6h2V7z" fill="#ffffff" data-fill-palette-color="accent"></path><rect x="57" y="11" width="2" height="2" fill="#ffffff" data-fill-palette-color="accent"></rect><rect x="57" y="15" width="2" height="2" fill="#ffffff" data-fill-palette-color="accent"></rect><rect x="57" y="7" width="2" height="2" fill="#ffffff" data-fill-palette-color="accent"></rect></g></svg></g></svg></g></svg></g></svg></g></svg></g><g></g></svg></g><defs></defs></svg><rect width="95.481" height="95.481" fill="none" stroke="none" visibility="hidden"></rect></g></svg></g></svg>